<mxfile host="app.diagrams.net" agent="Mozilla/5.0 (Macintosh; Intel Mac OS X 10_15_7) AppleWebKit/537.36 (KHTML, like Gecko) Chrome/131.0.0.0 Safari/537.36" version="26.0.4" pages="2">
  <diagram id="prtHgNgQTEPvFCAcTncT" name="Page-1">
    <mxGraphModel dx="1124" dy="842" grid="1" gridSize="10" guides="1" tooltips="1" connect="1" arrows="1" fold="1" page="1" pageScale="1" pageWidth="827" pageHeight="1169" math="0" shadow="0">
      <root>
        <mxCell id="0" />
        <mxCell id="1" parent="0" />
        <mxCell id="kTErkUdzdCm6bXNd9Q40-20" value="Greener Software Systems Approach" style="swimlane;childLayout=stackLayout;resizeParent=1;resizeParentMax=0;horizontal=1;startSize=20;horizontalStack=0;html=1;strokeWidth=0.5;fontSize=9;" parent="1" vertex="1">
          <mxGeometry x="9" y="10" width="611" height="200" as="geometry" />
        </mxCell>
        <mxCell id="kTErkUdzdCm6bXNd9Q40-21" value="Design" style="swimlane;startSize=20;horizontal=0;html=1;strokeWidth=0.5;fontSize=9;" parent="kTErkUdzdCm6bXNd9Q40-20" vertex="1">
          <mxGeometry y="20" width="611" height="90" as="geometry" />
        </mxCell>
        <mxCell id="kTErkUdzdCm6bXNd9Q40-28" style="edgeStyle=orthogonalEdgeStyle;rounded=0;orthogonalLoop=1;jettySize=auto;html=1;exitX=1;exitY=0.5;exitDx=0;exitDy=0;exitPerimeter=0;entryX=0;entryY=0.5;entryDx=0;entryDy=0;strokeWidth=0.5;fontSize=9;" parent="kTErkUdzdCm6bXNd9Q40-21" edge="1">
          <mxGeometry relative="1" as="geometry">
            <mxPoint x="41" y="26.880000000000003" as="sourcePoint" />
            <mxPoint x="71" y="26.880000000000003" as="targetPoint" />
          </mxGeometry>
        </mxCell>
        <mxCell id="kTErkUdzdCm6bXNd9Q40-24" value="" style="strokeWidth=0.5;html=1;shape=mxgraph.flowchart.start_2;whiteSpace=wrap;fillColor=#000000;fontSize=9;" parent="kTErkUdzdCm6bXNd9Q40-21" vertex="1">
          <mxGeometry x="31" y="22" width="10" height="10" as="geometry" />
        </mxCell>
        <mxCell id="OunGY7EFmT6px5UI9hH_-5" style="edgeStyle=orthogonalEdgeStyle;rounded=0;orthogonalLoop=1;jettySize=auto;html=1;exitX=1;exitY=0.5;exitDx=0;exitDy=0;entryX=0;entryY=0.5;entryDx=0;entryDy=0;" parent="kTErkUdzdCm6bXNd9Q40-21" source="kTErkUdzdCm6bXNd9Q40-26" target="kTErkUdzdCm6bXNd9Q40-35" edge="1">
          <mxGeometry relative="1" as="geometry" />
        </mxCell>
        <mxCell id="kTErkUdzdCm6bXNd9Q40-26" value="Check Macro-Architecture" style="rounded=1;whiteSpace=wrap;html=1;absoluteArcSize=1;arcSize=14;strokeWidth=0.5;fontSize=9;" parent="kTErkUdzdCm6bXNd9Q40-21" vertex="1">
          <mxGeometry x="71" y="11" width="100" height="30" as="geometry" />
        </mxCell>
        <mxCell id="kTErkUdzdCm6bXNd9Q40-74" style="edgeStyle=orthogonalEdgeStyle;rounded=0;orthogonalLoop=1;jettySize=auto;html=1;exitX=1;exitY=0.5;exitDx=0;exitDy=0;entryX=0;entryY=0.5;entryDx=0;entryDy=0;" parent="kTErkUdzdCm6bXNd9Q40-21" source="kTErkUdzdCm6bXNd9Q40-35" target="kTErkUdzdCm6bXNd9Q40-37" edge="1">
          <mxGeometry relative="1" as="geometry" />
        </mxCell>
        <mxCell id="kTErkUdzdCm6bXNd9Q40-35" value="Check Design-Patterns" style="rounded=1;whiteSpace=wrap;html=1;absoluteArcSize=1;arcSize=14;strokeWidth=0.5;fontSize=9;" parent="kTErkUdzdCm6bXNd9Q40-21" vertex="1">
          <mxGeometry x="201" y="11" width="100" height="30" as="geometry" />
        </mxCell>
        <mxCell id="kTErkUdzdCm6bXNd9Q40-37" value="Check Paradigm-Specifics" style="rounded=1;whiteSpace=wrap;html=1;absoluteArcSize=1;arcSize=14;strokeWidth=0.5;fontSize=9;" parent="kTErkUdzdCm6bXNd9Q40-21" vertex="1">
          <mxGeometry x="331" y="11" width="100" height="30" as="geometry" />
        </mxCell>
        <mxCell id="kTErkUdzdCm6bXNd9Q40-40" value="Macro-Archtitecture Report" style="strokeWidth=0.5;html=1;shape=mxgraph.flowchart.document2;whiteSpace=wrap;size=0.25;fontSize=9;verticalAlign=middle;spacing=2;spacingTop=-4;" parent="kTErkUdzdCm6bXNd9Q40-21" vertex="1">
          <mxGeometry x="71" y="50" width="100" height="30" as="geometry" />
        </mxCell>
        <mxCell id="kTErkUdzdCm6bXNd9Q40-41" style="edgeStyle=orthogonalEdgeStyle;rounded=0;orthogonalLoop=1;jettySize=auto;html=1;exitX=0.5;exitY=1;exitDx=0;exitDy=0;entryX=0.5;entryY=0;entryDx=0;entryDy=0;entryPerimeter=0;endArrow=none;endFill=0;strokeWidth=0.5;fontSize=9;" parent="kTErkUdzdCm6bXNd9Q40-21" source="kTErkUdzdCm6bXNd9Q40-26" target="kTErkUdzdCm6bXNd9Q40-40" edge="1">
          <mxGeometry relative="1" as="geometry" />
        </mxCell>
        <mxCell id="kTErkUdzdCm6bXNd9Q40-42" value="Pattern Report" style="strokeWidth=0.5;html=1;shape=mxgraph.flowchart.document2;whiteSpace=wrap;size=0.25;fontSize=9;spacingTop=-4;" parent="kTErkUdzdCm6bXNd9Q40-21" vertex="1">
          <mxGeometry x="201" y="50" width="100" height="30" as="geometry" />
        </mxCell>
        <mxCell id="kTErkUdzdCm6bXNd9Q40-43" style="edgeStyle=orthogonalEdgeStyle;rounded=0;orthogonalLoop=1;jettySize=auto;html=1;exitX=0.5;exitY=1;exitDx=0;exitDy=0;entryX=0.5;entryY=0;entryDx=0;entryDy=0;entryPerimeter=0;endArrow=none;endFill=0;strokeWidth=0.5;fontSize=9;" parent="kTErkUdzdCm6bXNd9Q40-21" source="kTErkUdzdCm6bXNd9Q40-35" target="kTErkUdzdCm6bXNd9Q40-42" edge="1">
          <mxGeometry relative="1" as="geometry" />
        </mxCell>
        <mxCell id="kTErkUdzdCm6bXNd9Q40-44" value="Paradigm Report" style="strokeWidth=0.5;html=1;shape=mxgraph.flowchart.document2;whiteSpace=wrap;size=0.25;fontSize=9;spacingTop=-4;" parent="kTErkUdzdCm6bXNd9Q40-21" vertex="1">
          <mxGeometry x="331" y="50" width="100" height="30" as="geometry" />
        </mxCell>
        <mxCell id="kTErkUdzdCm6bXNd9Q40-45" style="edgeStyle=orthogonalEdgeStyle;rounded=0;orthogonalLoop=1;jettySize=auto;html=1;exitX=0.5;exitY=1;exitDx=0;exitDy=0;entryX=0.5;entryY=0;entryDx=0;entryDy=0;entryPerimeter=0;endArrow=none;endFill=0;strokeWidth=0.5;fontSize=9;" parent="kTErkUdzdCm6bXNd9Q40-21" source="kTErkUdzdCm6bXNd9Q40-37" target="kTErkUdzdCm6bXNd9Q40-44" edge="1">
          <mxGeometry relative="1" as="geometry" />
        </mxCell>
        <mxCell id="kTErkUdzdCm6bXNd9Q40-46" value="" style="strokeWidth=0.5;html=1;shape=mxgraph.flowchart.start_2;whiteSpace=wrap;fillColor=none;fontSize=9;" parent="kTErkUdzdCm6bXNd9Q40-21" vertex="1">
          <mxGeometry x="591" y="21" width="10" height="10" as="geometry" />
        </mxCell>
        <mxCell id="kTErkUdzdCm6bXNd9Q40-47" value="" style="strokeWidth=0.5;html=1;shape=mxgraph.flowchart.start_2;whiteSpace=wrap;fillColor=#000000;fontSize=9;" parent="kTErkUdzdCm6bXNd9Q40-21" vertex="1">
          <mxGeometry x="594" y="24" width="4" height="4" as="geometry" />
        </mxCell>
        <mxCell id="kTErkUdzdCm6bXNd9Q40-48" style="edgeStyle=orthogonalEdgeStyle;rounded=0;orthogonalLoop=1;jettySize=auto;html=1;exitX=1;exitY=0.5;exitDx=0;exitDy=0;entryX=0;entryY=0.5;entryDx=0;entryDy=0;entryPerimeter=0;strokeWidth=0.5;fontSize=9;" parent="kTErkUdzdCm6bXNd9Q40-21" source="kTErkUdzdCm6bXNd9Q40-37" target="kTErkUdzdCm6bXNd9Q40-46" edge="1">
          <mxGeometry relative="1" as="geometry" />
        </mxCell>
        <mxCell id="kTErkUdzdCm6bXNd9Q40-22" value="Implementation" style="swimlane;startSize=20;horizontal=0;html=1;strokeWidth=0.5;fontSize=9;" parent="kTErkUdzdCm6bXNd9Q40-20" vertex="1">
          <mxGeometry y="110" width="611" height="90" as="geometry" />
        </mxCell>
        <mxCell id="OunGY7EFmT6px5UI9hH_-3" style="edgeStyle=orthogonalEdgeStyle;rounded=0;orthogonalLoop=1;jettySize=auto;html=1;exitX=1;exitY=0.5;exitDx=0;exitDy=0;exitPerimeter=0;entryX=0;entryY=0.5;entryDx=0;entryDy=0;strokeWidth=0.5;" parent="kTErkUdzdCm6bXNd9Q40-22" source="kTErkUdzdCm6bXNd9Q40-49" target="kTErkUdzdCm6bXNd9Q40-50" edge="1">
          <mxGeometry relative="1" as="geometry" />
        </mxCell>
        <mxCell id="kTErkUdzdCm6bXNd9Q40-49" value="" style="strokeWidth=0.5;html=1;shape=mxgraph.flowchart.start_2;whiteSpace=wrap;fillColor=#000000;fontSize=9;" parent="kTErkUdzdCm6bXNd9Q40-22" vertex="1">
          <mxGeometry x="31" y="21" width="10" height="10" as="geometry" />
        </mxCell>
        <mxCell id="kTErkUdzdCm6bXNd9Q40-52" value="" style="edgeStyle=orthogonalEdgeStyle;rounded=0;orthogonalLoop=1;jettySize=auto;html=1;endArrow=none;endFill=0;strokeWidth=0.5;fontSize=9;" parent="kTErkUdzdCm6bXNd9Q40-22" source="kTErkUdzdCm6bXNd9Q40-50" target="kTErkUdzdCm6bXNd9Q40-51" edge="1">
          <mxGeometry relative="1" as="geometry" />
        </mxCell>
        <mxCell id="kTErkUdzdCm6bXNd9Q40-56" style="edgeStyle=orthogonalEdgeStyle;rounded=0;orthogonalLoop=1;jettySize=auto;html=1;exitX=1;exitY=0.5;exitDx=0;exitDy=0;entryX=0;entryY=0.5;entryDx=0;entryDy=0;strokeWidth=0.5;fontSize=9;" parent="kTErkUdzdCm6bXNd9Q40-22" source="kTErkUdzdCm6bXNd9Q40-50" target="kTErkUdzdCm6bXNd9Q40-54" edge="1">
          <mxGeometry relative="1" as="geometry" />
        </mxCell>
        <mxCell id="kTErkUdzdCm6bXNd9Q40-50" value="Check Basics" style="rounded=1;whiteSpace=wrap;html=1;absoluteArcSize=1;arcSize=14;strokeWidth=0.5;fontSize=9;" parent="kTErkUdzdCm6bXNd9Q40-22" vertex="1">
          <mxGeometry x="71" y="11" width="100" height="30" as="geometry" />
        </mxCell>
        <mxCell id="kTErkUdzdCm6bXNd9Q40-51" value="Basic Report" style="strokeWidth=0.5;html=1;shape=mxgraph.flowchart.document2;whiteSpace=wrap;size=0.25;fontSize=9;spacingTop=-4;" parent="kTErkUdzdCm6bXNd9Q40-22" vertex="1">
          <mxGeometry x="71" y="50" width="100" height="30" as="geometry" />
        </mxCell>
        <mxCell id="kTErkUdzdCm6bXNd9Q40-59" style="edgeStyle=orthogonalEdgeStyle;rounded=0;orthogonalLoop=1;jettySize=auto;html=1;exitX=1;exitY=0.5;exitDx=0;exitDy=0;entryX=0;entryY=0.5;entryDx=0;entryDy=0;fontSize=9;strokeWidth=0.5;" parent="kTErkUdzdCm6bXNd9Q40-22" source="kTErkUdzdCm6bXNd9Q40-54" target="kTErkUdzdCm6bXNd9Q40-58" edge="1">
          <mxGeometry relative="1" as="geometry" />
        </mxCell>
        <mxCell id="kTErkUdzdCm6bXNd9Q40-54" value="Check Complexity &amp;amp;&amp;nbsp;&lt;span style=&quot;background-color: initial;&quot;&gt;Maintainability&lt;/span&gt;" style="rounded=1;whiteSpace=wrap;html=1;absoluteArcSize=1;arcSize=14;strokeWidth=0.5;fontSize=9;" parent="kTErkUdzdCm6bXNd9Q40-22" vertex="1">
          <mxGeometry x="201" y="11" width="100" height="30" as="geometry" />
        </mxCell>
        <mxCell id="kTErkUdzdCm6bXNd9Q40-55" value="&amp;nbsp;Complexity &amp;amp; Maintainability Report" style="strokeWidth=0.5;html=1;shape=mxgraph.flowchart.document2;whiteSpace=wrap;size=0.25;fontSize=9;spacingTop=-4;" parent="kTErkUdzdCm6bXNd9Q40-22" vertex="1">
          <mxGeometry x="201" y="50" width="100" height="30" as="geometry" />
        </mxCell>
        <mxCell id="kTErkUdzdCm6bXNd9Q40-57" style="edgeStyle=orthogonalEdgeStyle;rounded=0;orthogonalLoop=1;jettySize=auto;html=1;exitX=0.5;exitY=1;exitDx=0;exitDy=0;entryX=0.5;entryY=0;entryDx=0;entryDy=0;entryPerimeter=0;endArrow=none;endFill=0;strokeWidth=0.5;fontSize=9;" parent="kTErkUdzdCm6bXNd9Q40-22" source="kTErkUdzdCm6bXNd9Q40-54" target="kTErkUdzdCm6bXNd9Q40-55" edge="1">
          <mxGeometry relative="1" as="geometry" />
        </mxCell>
        <mxCell id="kTErkUdzdCm6bXNd9Q40-63" style="edgeStyle=orthogonalEdgeStyle;rounded=0;orthogonalLoop=1;jettySize=auto;html=1;exitX=1;exitY=0.5;exitDx=0;exitDy=0;entryX=0;entryY=0.5;entryDx=0;entryDy=0;fontSize=9;strokeWidth=0.5;" parent="kTErkUdzdCm6bXNd9Q40-22" source="kTErkUdzdCm6bXNd9Q40-58" target="kTErkUdzdCm6bXNd9Q40-62" edge="1">
          <mxGeometry relative="1" as="geometry" />
        </mxCell>
        <mxCell id="kTErkUdzdCm6bXNd9Q40-58" value="Check API Usage" style="rounded=1;whiteSpace=wrap;html=1;absoluteArcSize=1;arcSize=14;strokeWidth=0.5;fontSize=9;" parent="kTErkUdzdCm6bXNd9Q40-22" vertex="1">
          <mxGeometry x="331" y="11" width="100" height="30" as="geometry" />
        </mxCell>
        <mxCell id="kTErkUdzdCm6bXNd9Q40-60" value="&amp;nbsp;API-Usage Report" style="strokeWidth=0.5;html=1;shape=mxgraph.flowchart.document2;whiteSpace=wrap;size=0.25;fontSize=9;spacingTop=-4;" parent="kTErkUdzdCm6bXNd9Q40-22" vertex="1">
          <mxGeometry x="331" y="50" width="100" height="30" as="geometry" />
        </mxCell>
        <mxCell id="kTErkUdzdCm6bXNd9Q40-61" style="edgeStyle=orthogonalEdgeStyle;rounded=0;orthogonalLoop=1;jettySize=auto;html=1;exitX=0.5;exitY=1;exitDx=0;exitDy=0;entryX=0.5;entryY=0;entryDx=0;entryDy=0;entryPerimeter=0;endArrow=none;endFill=0;fontSize=9;" parent="kTErkUdzdCm6bXNd9Q40-22" source="kTErkUdzdCm6bXNd9Q40-58" target="kTErkUdzdCm6bXNd9Q40-60" edge="1">
          <mxGeometry relative="1" as="geometry" />
        </mxCell>
        <mxCell id="kTErkUdzdCm6bXNd9Q40-62" value="Check Resource Usage" style="rounded=1;whiteSpace=wrap;html=1;absoluteArcSize=1;arcSize=14;strokeWidth=0.5;fontSize=9;" parent="kTErkUdzdCm6bXNd9Q40-22" vertex="1">
          <mxGeometry x="461" y="11" width="100" height="30" as="geometry" />
        </mxCell>
        <mxCell id="kTErkUdzdCm6bXNd9Q40-64" value="&amp;nbsp;Resource-Usage Report" style="strokeWidth=0.5;html=1;shape=mxgraph.flowchart.document2;whiteSpace=wrap;size=0.25;fontSize=9;spacingTop=-4;" parent="kTErkUdzdCm6bXNd9Q40-22" vertex="1">
          <mxGeometry x="461" y="50" width="100" height="30" as="geometry" />
        </mxCell>
        <mxCell id="kTErkUdzdCm6bXNd9Q40-65" style="edgeStyle=orthogonalEdgeStyle;rounded=0;orthogonalLoop=1;jettySize=auto;html=1;exitX=0.5;exitY=1;exitDx=0;exitDy=0;entryX=0.5;entryY=0;entryDx=0;entryDy=0;entryPerimeter=0;endArrow=none;endFill=0;fontSize=9;" parent="kTErkUdzdCm6bXNd9Q40-22" source="kTErkUdzdCm6bXNd9Q40-62" target="kTErkUdzdCm6bXNd9Q40-64" edge="1">
          <mxGeometry relative="1" as="geometry" />
        </mxCell>
        <mxCell id="kTErkUdzdCm6bXNd9Q40-66" value="" style="strokeWidth=0.5;html=1;shape=mxgraph.flowchart.start_2;whiteSpace=wrap;fillColor=none;fontSize=9;" parent="kTErkUdzdCm6bXNd9Q40-22" vertex="1">
          <mxGeometry x="591" y="21" width="10" height="10" as="geometry" />
        </mxCell>
        <mxCell id="kTErkUdzdCm6bXNd9Q40-67" value="" style="strokeWidth=0.5;html=1;shape=mxgraph.flowchart.start_2;whiteSpace=wrap;fillColor=#000000;fontSize=9;" parent="kTErkUdzdCm6bXNd9Q40-22" vertex="1">
          <mxGeometry x="594" y="24" width="4" height="4" as="geometry" />
        </mxCell>
        <mxCell id="OunGY7EFmT6px5UI9hH_-4" style="edgeStyle=orthogonalEdgeStyle;rounded=0;orthogonalLoop=1;jettySize=auto;html=1;exitX=1;exitY=0.5;exitDx=0;exitDy=0;entryX=0;entryY=0.5;entryDx=0;entryDy=0;entryPerimeter=0;strokeWidth=0.5;" parent="kTErkUdzdCm6bXNd9Q40-22" source="kTErkUdzdCm6bXNd9Q40-62" target="kTErkUdzdCm6bXNd9Q40-66" edge="1">
          <mxGeometry relative="1" as="geometry" />
        </mxCell>
      </root>
    </mxGraphModel>
  </diagram>
  <diagram id="n_HYH2r3-OJEscm1obgY" name="Page-2">
    <mxGraphModel dx="1124" dy="842" grid="1" gridSize="10" guides="1" tooltips="1" connect="1" arrows="1" fold="1" page="1" pageScale="1" pageWidth="850" pageHeight="1100" math="0" shadow="0">
      <root>
        <mxCell id="0" />
        <mxCell id="1" parent="0" />
      </root>
    </mxGraphModel>
  </diagram>
</mxfile>
